<svg class="atoms-logo pq-logo" preserveAspectRatio="xMidYMid" viewBox="0 -14 228 78" xmlns="http://www.w3.org/2000/svg"><g><path d="m 59.780411,6.0042177 c -0.05283,0.1232663 -0.07044,0.5811125 -0.03522,1.0037398 l 0.05283,0.7748167 1.144615,0.1056568 c 0.633941,0.052828 1.443977,0.1937041 1.796166,0.3169704 0.810036,0.2641421 1.637681,1.197444 1.884214,2.0779176 0.264142,0.915692 0.264142,28.597779 0.01761,29.495862 -0.246533,0.862864 -0.968521,1.708119 -1.760947,2.042699 -0.33458,0.140875 -1.162225,0.31697 -1.848994,0.369799 l -1.232663,0.105656 v 0.968521 0.968521 l 9.738037,0.05283 9.720427,0.03522 v -1.056568 -1.056568 h -1.620071 c -1.884213,0 -2.782296,-0.31697 -3.521894,-1.197444 -0.898083,-1.074178 -0.933302,-1.391148 -0.933302,-8.399717 v -6.515504 l 2.65903,0.03522 c 2.201184,0.03522 2.817515,0.105657 3.64516,0.405018 1.743338,0.65155 2.764687,2.271621 3.028829,4.807385 l 0.123266,1.197444 0.827645,-0.05283 0.810036,-0.05283 v -7.30793 -7.30793 l -0.810036,-0.05283 -0.810035,-0.05283 -0.123266,1.267882 c -0.264143,2.694249 -1.33832,4.279101 -3.222533,4.842604 -0.757208,0.228923 -1.69051,0.316971 -3.574723,0.316971 l -2.553373,0.01761 V 15.88313 7.6066795 l 2.377278,-0.052829 c 3.944522,-0.088047 6.392238,0.4578463 8.452546,1.8842133 1.884213,1.2854922 3.521894,3.8916932 4.419977,6.9205212 l 0.387408,1.373539 h 0.68677 0.669159 V 11.744905 5.7576851 H 75.030212 c -12.749256,0 -15.161753,0.035219 -15.249801,0.2465326 z"></path><path d="m 100.91613,16.252929 c -3.433843,0.581113 -5.899169,1.831385 -8.047525,4.067788 -5.476545,5.65264 -5.423716,14.739126 0.123267,20.303719 1.831385,1.848994 3.96213,3.064047 6.515504,3.715598 1.584854,0.405018 5.089134,0.31697 6.691594,-0.176095 2.65903,-0.810035 5.14197,-2.482935 6.92053,-4.684119 0.98613,-1.215053 2.27162,-3.733207 2.69424,-5.282841 0.38741,-1.408757 0.52829,-4.895433 0.26415,-6.30419 -1.05657,-5.476545 -5.05392,-9.949351 -10.14306,-11.30528 -1.05657,-0.264142 -4.17344,-0.493065 -5.0187,-0.33458 z m 3.59234,1.901823 c 1.26788,0.950911 2.13074,2.976 2.67663,6.198533 0.3698,2.165965 0.42263,9.456286 0.088,11.604641 -0.59872,3.856474 -1.69051,6.251362 -3.22253,7.061398 -0.26414,0.140875 -0.9333,0.246532 -1.49681,0.246532 -1.93704,0 -3.152091,-1.197444 -4.014955,-3.926912 -0.721989,-2.254012 -0.968521,-4.525633 -0.968521,-8.928001 0,-2.482935 0.105657,-4.613681 0.264142,-5.723078 0.493065,-3.486675 1.567243,-5.899172 3.011224,-6.744427 1.00374,-0.581112 2.74707,-0.493065 3.66277,0.211314 z"></path><path d="m 136.66336,16.340977 c -2.62381,0.264142 -5.51177,1.901822 -6.88531,3.926911 -0.22892,0.35219 -0.49306,0.633941 -0.5635,0.633941 -0.0704,0 -0.12326,-0.98613 -0.10566,-2.218793 0.0176,-1.215053 -0.0176,-2.236403 -0.0528,-2.271622 -0.0352,-0.03522 -1.2855,0.123267 -2.7823,0.369799 -3.69799,0.581113 -8.39972,1.303101 -8.52298,1.303101 -0.0528,0 -0.10566,0.316971 -0.10566,0.704379 0,0.65155 0.0352,0.704379 0.51067,0.704379 0.68677,0 1.62008,0.33458 2.07792,0.757207 0.9333,0.845254 0.95091,1.021349 0.89808,11.217232 -0.0528,9.051268 -0.0704,9.438676 -0.40501,10.019789 -0.42263,0.721988 -1.40876,1.267882 -2.48294,1.391148 -0.77482,0.08805 -0.77482,0.08805 -0.77482,0.757207 v 0.686769 h 8.01231 8.01231 v -0.704378 -0.704379 h -0.86286 c -1.58485,0 -2.62381,-0.581113 -3.16971,-1.760947 -0.22892,-0.510675 -0.28175,-1.620071 -0.33458,-6.920522 -0.088,-9.2978 0.15849,-10.829824 2.25402,-13.471244 0.66916,-0.862864 2.53576,-2.306841 2.72946,-2.113137 0.0528,0.05283 0,0.33458 -0.10565,0.651551 -0.52829,1.496804 0.31697,3.557112 1.84899,4.508024 0.7396,0.457846 1.03896,0.528284 2.02509,0.528284 2.43011,-0.01761 4.06779,-1.65529 4.06779,-4.050178 0,-1.620071 -0.75721,-2.923172 -2.11314,-3.609941 -0.77481,-0.387409 -1.70812,-0.493066 -3.1697,-0.33458 z"></path><path d="m 150.22265,17.115793 c -2.57098,0.405018 -5.03631,0.792426 -5.49416,0.862864 -0.84525,0.123267 -0.84525,0.140876 -0.84525,0.792426 0,0.704379 0.22892,0.880474 1.1094,0.898083 0.63394,0 1.53202,0.563503 1.91943,1.215054 0.40502,0.633941 0.40502,0.686769 0.51067,9.086486 0.088,7.9947 0.10566,8.505374 0.45785,9.438676 0.5635,1.532024 0.91569,2.095527 1.88421,3.116876 2.43011,2.588593 6.48029,3.064048 10.26632,1.232663 1.16223,-0.563503 3.45146,-2.588592 4.15584,-3.662769 0.26414,-0.422628 0.28175,-0.299361 0.28175,2.148355 0.0176,1.443976 0.0704,2.606202 0.12327,2.606202 0.21131,0 9.05126,-1.443977 10.01979,-1.637681 1.03895,-0.211314 1.05656,-0.211314 1.10939,-0.862864 l 0.0528,-0.651551 -0.89808,-0.123266 c -1.14462,-0.158485 -1.91944,-0.66916 -2.37728,-1.567243 -0.33458,-0.686769 -0.35219,-1.109396 -0.40502,-12.220972 l -0.0528,-11.498984 -0.49306,0.08805 c -0.40502,0.08805 -3.9093,0.63394 -10.26632,1.63768 -0.63394,0.08805 -0.66916,0.140876 -0.66916,0.774817 0,0.616331 0.0528,0.686769 0.52828,0.774817 0.29936,0.05283 0.77482,0.158485 1.05657,0.211313 0.7396,0.140876 1.4968,0.968521 1.74334,1.901823 0.12326,0.528284 0.1937,3.451456 0.1937,8.945611 v 8.153184 l -0.91569,0.598722 c -0.95091,0.616332 -2.65903,1.250273 -3.41624,1.250273 -1.76095,0 -3.39863,-1.215054 -4.03257,-2.99361 -0.31697,-0.915693 -0.35219,-1.620071 -0.40502,-11.146795 -0.0352,-7.712948 -0.10565,-10.160664 -0.26414,-10.143054 -0.12326,0.01761 -2.30684,0.352189 -4.87782,0.774816 z"></path><path d="m 184.03283,17.115793 c -2.46532,0.405018 -4.86021,0.792426 -5.31806,0.862864 -0.84525,0.123267 -0.84525,0.123267 -0.84525,0.827645 0,0.651551 0.0176,0.68677 0.58111,0.68677 0.98613,0 2.09553,0.686769 2.55337,1.584852 l 0.40502,0.792426 -0.0528,9.509114 c -0.0528,9.192143 -0.0704,9.526723 -0.40502,10.125445 -0.42262,0.704379 -1.37353,1.250273 -2.48293,1.373539 -0.77482,0.08805 -0.77482,0.08805 -0.77482,0.757207 v 0.686769 h 7.30793 7.30793 v -0.686769 c 0,-0.65155 -0.0176,-0.686769 -0.70438,-0.774817 -0.95091,-0.123266 -1.54963,-0.545893 -1.90182,-1.32071 -0.26414,-0.581112 -0.29936,-1.708118 -0.35219,-9.826084 l -0.0528,-9.174534 0.63394,-0.545894 c 0.88048,-0.792426 1.86661,-1.250272 3.22254,-1.532023 2.07791,-0.440237 3.60994,0.211313 4.54324,1.901822 l 0.51067,0.915693 0.0528,8.839954 c 0.0528,9.579551 0.0352,9.738037 -0.89808,10.354368 -0.22892,0.140876 -0.77482,0.33458 -1.19744,0.405018 -0.7396,0.123266 -0.77482,0.158485 -0.77482,0.739598 v 0.616331 l 7.00857,0.05283 6.99096,0.03522 v -0.704378 c 0,-0.66916 -0.0352,-0.704379 -0.52829,-0.704379 -0.86286,0 -1.70811,-0.440237 -2.0603,-1.091787 -0.29936,-0.545894 -0.31697,-1.285492 -0.3698,-10.019789 l -0.0528,-9.456285 0.5635,-0.457846 c 1.33832,-1.144616 3.62755,-1.813776 5.08914,-1.496805 1.76095,0.369799 2.65903,1.391148 3.09927,3.504284 0.40501,1.972261 0.29936,16.693778 -0.14088,17.644689 -0.35219,0.774817 -0.95091,1.197444 -1.90182,1.32071 -0.68677,0.08805 -0.70438,0.123267 -0.70438,0.774817 v 0.686769 H 219.69207 227 v -0.686769 c 0,-0.66916 0,-0.66916 -0.81004,-0.792426 -1.16222,-0.158485 -1.95465,-0.581113 -2.39489,-1.32071 -0.40501,-0.633941 -0.40501,-0.651551 -0.49306,-9.878913 -0.10566,-8.892782 -0.12327,-9.2978 -0.49307,-10.389587 -0.73959,-2.236403 -2.2364,-3.838865 -4.17344,-4.490415 -0.47546,-0.176095 -1.56724,-0.35219 -2.39489,-0.387408 -3.60994,-0.211314 -7.53685,1.479195 -9.52672,4.103006 l -0.7396,0.98613 -0.21131,-0.704378 c -0.28175,-1.00374 -0.82765,-1.813776 -1.76095,-2.67664 -2.4125,-2.218793 -6.74443,-2.359669 -10.75939,-0.33458 -1.47919,0.739598 -3.29297,2.218793 -3.7332,3.046438 -0.14088,0.246533 -0.29936,0.457847 -0.35219,0.457847 -0.0528,0 -0.10566,-1.091787 -0.10566,-2.412498 0,-2.025089 -0.0352,-2.430107 -0.26414,-2.447716 -0.14088,-0.01761 -2.28923,0.299361 -4.75456,0.721988 z"></path><g><circle cx="6.357522" cy="14.31656" r="2.4750657"></circle><circle cx="14.365089" cy="6.4060535" r="2.4750657"></circle><circle cx="25.138906" cy="3.4942112" r="2.4750657"></circle><circle cx="36.009785" cy="6.4060535" r="2.4750657"></circle><circle cx="43.871758" cy="14.365089" r="2.4750657"></circle><circle cx="46.880665" cy="25.23597" r="2.4750657"></circle><circle cx="43.968819" cy="36.106846" r="2.4750657"></circle><circle cx="36.009789" cy="43.968822" r="2.4750657"></circle><circle cx="25.138906" cy="46.880665" r="2.4750657"></circle><circle cx="14.268028" cy="44.06588" r="2.4750657"></circle><circle cx="6.406055" cy="36.009785" r="2.4750657"></circle><circle cx="3.494211" cy="25.23597" r="2.4750657"></circle><circle cx="13.782721" cy="25.23597" r="2.4750657"></circle><circle cx="17.179871" cy="33.292065" r="2.4750657"></circle><circle cx="25.138906" cy="36.495094" r="2.4750657"></circle><circle cx="33.195004" cy="33.195004" r="2.4750657"></circle><circle cx="36.592155" cy="25.23597" r="2.4750657"></circle><circle cx="25.138906" cy="25.23597" r="2.4750657"></circle><circle cx="17.082809" cy="17.179871" r="2.4750657"></circle><circle cx="25.138906" cy="13.685661" r="2.4750657"></circle><circle cx="33.195004" cy="17.179871" r="2.4750657"></circle></g></g></svg>