<svg width="24" height="24" viewBox="0 0 24 24" fill="none" xmlns="http://www.w3.org/2000/svg">
<path d="M6 9H4.5C3.83696 9 3.20107 8.73661 2.73223 8.26777C2.26339 7.79893 2 7.16304 2 6.5C2 5.83696 2.26339 5.20107 2.73223 4.73223C3.20107 4.26339 3.83696 4 4.5 4H6" fill="#CD924F"/>
<path d="M18 9H19.5C20.163 9 20.7989 8.73661 21.2678 8.26777C21.7366 7.79893 22 7.16304 22 6.5C22 5.83696 21.7366 5.20107 21.2678 4.73223C20.7989 4.26339 20.163 4 19.5 4H18" fill="#CD924F"/>
<path d="M4 22H20Z" fill="#CD924F"/>
<path d="M18 2H6V9C6 10.5913 6.63214 12.1174 7.75736 13.2426C8.88258 14.3679 10.4087 15 12 15C13.5913 15 15.1174 14.3679 16.2426 13.2426C17.3679 12.1174 18 10.5913 18 9V2Z" fill="#CD924F"/>
<path d="M6 9H4.5C3.83696 9 3.20107 8.73661 2.73223 8.26777C2.26339 7.79893 2 7.16304 2 6.5C2 5.83696 2.26339 5.20107 2.73223 4.73223C3.20107 4.26339 3.83696 4 4.5 4H6M6 9V2H18V9M6 9C6 10.5913 6.63214 12.1174 7.75736 13.2426C8.88258 14.3679 10.4087 15 12 15C13.5913 15 15.1174 14.3679 16.2426 13.2426C17.3679 12.1174 18 10.5913 18 9M18 9H19.5C20.163 9 20.7989 8.73661 21.2678 8.26777C21.7366 7.79893 22 7.16304 22 6.5C22 5.83696 21.7366 5.20107 21.2678 4.73223C20.7989 4.26339 20.163 4 19.5 4H18M4 22H20M10 14.66V17C10 17.55 9.53 17.98 9.03 18.21C7.85 18.75 7 20.24 7 22M14 14.66V17C14 17.55 14.47 17.98 14.97 18.21C16.15 18.75 17 20.24 17 22" stroke="#935B1C" stroke-linecap="round" stroke-linejoin="round"/>
<g clip-path="url(#clip0_2206_208)">
<path d="M11.8416 4.76505C11.8562 4.73553 11.8788 4.71069 11.9068 4.69332C11.9347 4.67595 11.967 4.66675 11.9999 4.66675C12.0329 4.66675 12.0652 4.67595 12.0931 4.69332C12.1211 4.71069 12.1437 4.73553 12.1583 4.76505L12.9283 6.32471C12.979 6.42737 13.0539 6.51618 13.1465 6.58353C13.2391 6.65088 13.3467 6.69475 13.4599 6.71138L15.1819 6.96338C15.2146 6.96811 15.2452 6.98187 15.2704 7.00311C15.2957 7.02435 15.3144 7.05223 15.3246 7.08358C15.3348 7.11493 15.336 7.14851 15.3281 7.18052C15.3202 7.21253 15.3036 7.2417 15.2799 7.26471L14.0346 8.47738C13.9525 8.55741 13.891 8.65621 13.8556 8.76526C13.8201 8.8743 13.8116 8.99034 13.8309 9.10338L14.1249 10.8167C14.1307 10.8493 14.1272 10.8829 14.1148 10.9136C14.1024 10.9443 14.0816 10.9709 14.0548 10.9904C14.028 11.0098 13.9963 11.0214 13.9632 11.0237C13.9302 11.026 13.8972 11.0189 13.8679 11.0034L12.3286 10.194C12.2272 10.1408 12.1143 10.113 11.9998 10.113C11.8852 10.113 11.7724 10.1408 11.6709 10.194L10.1319 11.0034C10.1027 11.0188 10.0697 11.0258 10.0368 11.0235C10.0038 11.0211 9.97212 11.0096 9.94538 10.9901C9.91864 10.9707 9.89789 10.9441 9.8855 10.9135C9.87311 10.8828 9.86957 10.8493 9.87528 10.8167L10.1689 9.10371C10.1883 8.99062 10.1799 8.87451 10.1445 8.76539C10.109 8.65628 10.0475 8.55743 9.96528 8.47738L8.71995 7.26505C8.69615 7.24206 8.67928 7.21284 8.67127 7.18074C8.66326 7.14863 8.66443 7.11492 8.67464 7.08344C8.68486 7.05197 8.7037 7.02399 8.72904 7.00271C8.75438 6.98142 8.78518 6.96768 8.81795 6.96305L10.5396 6.71138C10.653 6.69488 10.7607 6.65107 10.8535 6.58371C10.9462 6.51635 11.0212 6.42747 11.0719 6.32471L11.8416 4.76505Z" fill="white"/>
</g>
<defs>
<clipPath id="clip0_2206_208">
<rect width="8" height="8" fill="white" transform="translate(8 4)"/>
</clipPath>
</defs>
</svg>
