<svg width="24" height="24" viewBox="0 0 24 24" fill="none" xmlns="http://www.w3.org/2000/svg">
<path d="M20 13C20 18 16.5 20.5 12.34 21.95C12.1222 22.0238 11.8855 22.0202 11.67 21.94C7.5 20.5 4 18 4 13V5.99996C4 5.73474 4.10536 5.48039 4.29289 5.29285C4.48043 5.10532 4.73478 4.99996 5 4.99996C7 4.99996 9.5 3.79996 11.24 2.27996C11.4519 2.09896 11.7214 1.99951 12 1.99951C12.2786 1.99951 12.5481 2.09896 12.76 2.27996C14.51 3.80996 17 4.99996 19 4.99996C19.2652 4.99996 19.5196 5.10532 19.7071 5.29285C19.8946 5.48039 20 5.73474 20 5.99996V13Z" fill="#CD924F"/>
<path d="M11.802 7.95625C11.8203 7.91936 11.8485 7.8883 11.8835 7.86659C11.9184 7.84488 11.9588 7.83337 11.9999 7.83337C12.0411 7.83337 12.0814 7.84488 12.1164 7.86659C12.1514 7.8883 12.1796 7.91936 12.1979 7.95625L13.1604 9.90583C13.2238 10.0341 13.3174 10.1452 13.4331 10.2294C13.5489 10.3135 13.6833 10.3684 13.8249 10.3892L15.9774 10.7042C16.0182 10.7101 16.0565 10.7273 16.0881 10.7538C16.1196 10.7804 16.143 10.8152 16.1558 10.8544C16.1685 10.8936 16.17 10.9356 16.1602 10.9756C16.1503 11.0156 16.1294 11.0521 16.0999 11.0808L14.5433 12.5967C14.4406 12.6967 14.3638 12.8202 14.3195 12.9565C14.2751 13.0928 14.2645 13.2379 14.2887 13.3792L14.6562 15.5208C14.6634 15.5616 14.659 15.6036 14.6435 15.6419C14.628 15.6803 14.602 15.7136 14.5685 15.7379C14.535 15.7622 14.4953 15.7767 14.454 15.7795C14.4128 15.7824 14.3715 15.7736 14.3349 15.7542L12.4108 14.7425C12.284 14.6759 12.1429 14.6411 11.9997 14.6411C11.8565 14.6411 11.7155 14.6759 11.5887 14.7425L9.66494 15.7542C9.62841 15.7735 9.58719 15.7822 9.54596 15.7793C9.50473 15.7763 9.46515 15.7619 9.43173 15.7376C9.3983 15.7133 9.37237 15.6801 9.35688 15.6418C9.34139 15.6034 9.33696 15.5615 9.3441 15.5208L9.71119 13.3796C9.73543 13.2382 9.72493 13.0931 9.68058 12.9567C9.63622 12.8203 9.55936 12.6967 9.4566 12.5967L7.89994 11.0812C7.87018 11.0525 7.8491 11.016 7.83909 10.9759C7.82907 10.9357 7.83053 10.8936 7.8433 10.8542C7.85607 10.8149 7.87963 10.7799 7.9113 10.7533C7.94297 10.7267 7.98148 10.7095 8.02244 10.7037L10.1745 10.3892C10.3163 10.3685 10.4509 10.3138 10.5668 10.2296C10.6828 10.1454 10.7765 10.0343 10.8399 9.90583L11.802 7.95625Z" fill="white"/>
</svg>
